<?xml version="1.0" encoding="UTF-8" standalone="no"?>
<svg
   xmlns:dc="http://purl.org/dc/elements/1.1/"
   xmlns:cc="http://creativecommons.org/ns#"
   xmlns:rdf="http://www.w3.org/1999/02/22-rdf-syntax-ns#"
   xmlns:svg="http://www.w3.org/2000/svg"
   xmlns="http://www.w3.org/2000/svg"
   xmlns:sodipodi="http://sodipodi.sourceforge.net/DTD/sodipodi-0.dtd"
   xmlns:inkscape="http://www.inkscape.org/namespaces/inkscape"
   sodipodi:docname="mountScrew_CAD.svg"
   inkscape:version="1.0 (1.0+r73+1)"
   id="svg8"
   version="1.1"
   viewBox="0 0 210 297"
   height="297mm"
   width="210mm">
  <defs
     id="defs2">
    <marker
       inkscape:stockid="Arrow1Lstart"
       orient="auto"
       refY="0"
       refX="0"
       id="marker1592"
       style="overflow:visible"
       inkscape:isstock="true">
      <path
         id="path1590"
         d="M 0,0 5,-5 -12.5,0 5,5 Z"
         style="fill:#b743b4;fill-opacity:1;fill-rule:evenodd;stroke:none;stroke-width:1pt;stroke-opacity:1"
         transform="matrix(0.8,0,0,0.8,10,0)" />
    </marker>
    <marker
       inkscape:stockid="Arrow1Lstart"
       orient="auto"
       refY="0"
       refX="0"
       id="marker1582"
       style="overflow:visible"
       inkscape:isstock="true">
      <path
         id="path1580"
         d="M 0,0 5,-5 -12.5,0 5,5 Z"
         style="fill:#b743b4;fill-opacity:1;fill-rule:evenodd;stroke:none;stroke-width:1pt;stroke-opacity:1"
         transform="matrix(0.8,0,0,0.8,10,0)" />
    </marker>
    <marker
       inkscape:stockid="Arrow1Lstart"
       orient="auto"
       refY="0"
       refX="0"
       id="marker1572"
       style="overflow:visible"
       inkscape:isstock="true">
      <path
         id="path1570"
         d="M 0,0 5,-5 -12.5,0 5,5 Z"
         style="fill:#b743b4;fill-opacity:1;fill-rule:evenodd;stroke:none;stroke-width:1pt;stroke-opacity:1"
         transform="matrix(0.8,0,0,0.8,10,0)" />
    </marker>
    <marker
       inkscape:isstock="true"
       style="overflow:visible"
       id="marker1510"
       refX="0"
       refY="0"
       orient="auto"
       inkscape:stockid="Arrow1Lstart">
      <path
         transform="matrix(0.8,0,0,0.8,10,0)"
         style="fill-rule:evenodd;stroke:#000000;stroke-width:1pt"
         d="M 0,0 5,-5 -12.5,0 5,5 Z"
         id="path1508" />
    </marker>
    <marker
       inkscape:isstock="true"
       style="overflow:visible"
       id="marker1488"
       refX="0"
       refY="0"
       orient="auto"
       inkscape:stockid="Arrow1Lstart">
      <path
         transform="matrix(0.8,0,0,0.8,10,0)"
         style="fill-rule:evenodd;stroke:#000000;stroke-width:1pt"
         d="M 0,0 5,-5 -12.5,0 5,5 Z"
         id="path1486" />
    </marker>
    <marker
       inkscape:isstock="true"
       style="overflow:visible"
       id="marker1472"
       refX="0"
       refY="0"
       orient="auto"
       inkscape:stockid="Arrow1Lstart">
      <path
         transform="matrix(0.8,0,0,0.8,10,0)"
         style="fill-rule:evenodd;stroke:#000000;stroke-width:1pt"
         d="M 0,0 5,-5 -12.5,0 5,5 Z"
         id="path1470" />
    </marker>
    <marker
       id="Arrow1Lstart"
       orient="auto"
       refX="0.0"
       refY="0.0"
       style="overflow:visible"
       inkscape:stockid="Arrow1Lstart">
      <path
         d="M 0.0,0.0 L 5.0,-5.0 L -12.5,0.0 L 5.0,5.0 L 0.0,0.0 z "
         transform="matrix(0.8 0 0 0.8 10 0)"
         style="fill-rule:evenodd;stroke:#000000;stroke-width:1.0pt;marker-start:none"
         id="path3321" />
    </marker>
    <marker
       id="Arrow1Lend"
       orient="auto"
       refX="0.0"
       refY="0.0"
       style="overflow:visible"
       inkscape:stockid="Arrow1Lend">
      <path
         d="M 0.0,0.0 L 5.0,-5.0 L -12.5,0.0 L 5.0,5.0 L 0.0,0.0 z "
         transform="matrix(-0.8 9.79717e-17 -9.79717e-17 -0.8 -10 1.22465e-15)"
         style="fill-rule:evenodd;stroke:#000000;stroke-width:1.0pt;marker-start:none"
         id="path3324" />
    </marker>
  </defs>
  <sodipodi:namedview
     inkscape:window-maximized="1"
     inkscape:window-y="0"
     inkscape:window-x="1280"
     inkscape:window-height="1050"
     inkscape:window-width="1920"
     inkscape:snap-global="false"
     showgrid="true"
     inkscape:document-rotation="0"
     inkscape:current-layer="layer1"
     inkscape:document-units="mm"
     inkscape:cy="278.36684"
     inkscape:cx="251.79497"
     inkscape:zoom="0.90509668"
     inkscape:pageshadow="2"
     inkscape:pageopacity="0.0"
     borderopacity="1.0"
     bordercolor="#666666"
     pagecolor="#ffffff"
     id="base">
    <inkscape:grid
       spacingy="0.99999997"
       spacingx="0.99999997"
       units="mm"
       empopacity="0.25098039"
       empcolor="#ff3f3f"
       id="grid12"
       type="xygrid" />
  </sodipodi:namedview>
  <metadata
     id="metadata5">
    <rdf:RDF>
      <cc:Work
         rdf:about="">
        <dc:format>image/svg+xml</dc:format>
        <dc:type
           rdf:resource="http://purl.org/dc/dcmitype/StillImage" />
        <dc:title></dc:title>
      </cc:Work>
    </rdf:RDF>
  </metadata>
  <g
     id="layer1"
     inkscape:groupmode="layer"
     inkscape:label="Layer 1">
    <path
       sodipodi:nodetypes="ccccccccccccccc"
       d="m 49.310432,60.0695 c -5.07446,0.95968 -10.54383,2.10872 -15.00014,2.99983 l 5e-5,1.8e-4 c -1.41619,0.26848 -2.441302,1.58612 -2.441241,3.02754 1.87e-4,1.44122 1.025241,2.704 2.441241,2.97245 l -5e-5,-2e-5 12.65865,2.53162 c 2.38745,0.4964 0.002,-5.3e-4 2.38797,0.49558 5.19366,-0.93167 10.60541,-2.02449 15.95355,-3.02721 l -1.3e-4,3e-5 c 1.43816,-0.24873 2.48876,-1.54499 2.48887,-3.00449 1.4e-4,-1.45971 -1.05052,-2.74674 -2.48887,-2.9955 l 1.3e-4,-1.8e-4 -13.87822,-2.60191 c -0.74145,-0.15955 -1.44828,-0.34636 -2.12181,-0.39792 z"
       style="opacity:1;fill:#b743b4;fill-opacity:1;stroke:none;stroke-width:0.0264583;stroke-miterlimit:4;stroke-dasharray:none;stroke-opacity:1"
       id="circle1451" />
    <g
       transform="translate(50.171554,-88.290934)"
       id="g3611">
      <path
         style="fill:none;stroke:#000000"
         d="M 92.402546,142.70643 H 128.33265"
         marker-start="url(#Arrow1Lstart)"
         marker-end="url(#Arrow1Lend)"
         stroke-width="0.264583"
         id="path3332" />
      <path
         style="fill:none;stroke:#000000"
         d="m 92.402546,129.47727 v 38.48551"
         stroke-width="0.132292"
         id="path3334" />
      <path
         style="fill:none;stroke:#000000"
         d="m 128.33265,129.47727 v 38.48551"
         stroke-width="0.132292"
         id="path3336" />
      <path
         style="fill:none;stroke:#000000"
         d="m 79.173379,155.9356 v 12.02718"
         marker-start="url(#Arrow1Lstart)"
         marker-end="url(#Arrow1Lend)"
         stroke-width="0.264583"
         id="path3338" />
      <path
         style="fill:none;stroke:#000000"
         d="M 65.944213,155.9356 H 128.33265"
         stroke-width="0.132292"
         id="path3340" />
      <path
         style="fill:none;stroke:#000000"
         d="M 65.944213,167.96278 H 128.33265"
         stroke-width="0.132292"
         id="path3342" />
      <path
         id="path3029"
         style="fill:#b743b4;fill-opacity:1;stroke:none;stroke-width:0.0264583;stroke-miterlimit:4;stroke-dasharray:none;stroke-opacity:1"
         d="m 109.84388,155.9356 c -5.07446,0.95968 -10.543832,2.10872 -15.000143,2.99983 l 5e-5,1.8e-4 c -1.41619,0.26848 -2.441302,1.58612 -2.441241,3.02754 1.87e-4,1.44122 1.025241,2.704 2.441241,2.97245 l -5e-5,-2e-5 12.658653,2.53162 c 2.38745,0.4964 0.002,-5.3e-4 2.38797,0.49558 5.19366,-0.93167 10.60541,-2.02449 15.95355,-3.02721 l -1.3e-4,3e-5 c 1.43816,-0.24873 2.48876,-1.54499 2.48887,-3.00449 1.4e-4,-1.45971 -1.05052,-2.74674 -2.48887,-2.9955 l 1.3e-4,-1.8e-4 -13.87822,-2.60191 c -0.74145,-0.15955 -1.44828,-0.34636 -2.12181,-0.39792 z"
         sodipodi:nodetypes="ccccccccccccccc" />
      <text
         xml:space="preserve"
         style="font-style:normal;font-weight:normal;font-size:2.95102px;line-height:1.25;font-family:sans-serif;letter-spacing:0px;word-spacing:0px;fill:#000000;fill-opacity:1;stroke:none;stroke-width:0.0737756"
         x="105.5899"
         y="140.98061"
         id="text3594"><tspan
           sodipodi:role="line"
           id="tspan3592"
           x="105.5899"
           y="140.98061"
           style="stroke-width:0.0737756">31 mm</tspan></text>
      <text
         xml:space="preserve"
         style="font-style:normal;font-weight:normal;font-size:2.95102px;line-height:1.25;font-family:sans-serif;letter-spacing:0px;word-spacing:0px;fill:#000000;fill-opacity:1;stroke:none;stroke-width:0.0737756"
         x="66.779533"
         y="163.01746"
         id="text3598"><tspan
           sodipodi:role="line"
           id="tspan3596"
           x="66.779533"
           y="163.01746"
           style="stroke-width:0.0737756">12 mm</tspan></text>
    </g>
  </g>
</svg>
